<svg xmlns="http://www.w3.org/2000/svg" width="182" height="40" fill="none"><g clip-path="url(#a)"><path fill="#3398F6" d="m21.424 8.47-.91 1.202 7.379 9.737c.215.284.326.588.326.899 0 .31-.11.614-.328.899l-7.378 9.735.911 1.203c.216.285.718.47 1.272.47s1.057-.185 1.272-.47l8.744-11.538a.5.5 0 0 0 .109-.3.5.5 0 0 0-.109-.299L23.968 8.47c-.215-.285-.718-.47-1.272-.47s-1.056.185-1.272.47Zm-2.848 23.676.911-1.202-7.38-9.738c-.215-.284-.325-.587-.325-.898 0-.311.11-.615.327-.9l7.378-9.735-.91-1.202C18.36 8.186 17.857 8 17.303 8s-1.056.186-1.272.47L7.288 20.008a.5.5 0 0 0-.108.3.5.5 0 0 0 .108.3l8.744 11.538c.216.284.718.47 1.272.47s1.057-.186 1.272-.47Z"/><path fill="#fff" d="m28.604 8.47-.912 1.202 7.38 9.737c.216.284.326.588.326.899 0 .31-.11.614-.328.899l-7.378 9.735.912 1.203c.215.285.718.47 1.272.47s1.056-.185 1.272-.47l8.744-11.538a.5.5 0 0 0 .108-.3.5.5 0 0 0-.108-.299L31.148 8.47c-.216-.285-.718-.47-1.272-.47s-1.057.185-1.272.47ZM11.397 32.146l.911-1.202-7.38-9.738c-.215-.284-.326-.587-.326-.898 0-.311.11-.615.328-.9l7.378-9.735-.911-1.202C11.18 8.186 10.679 8 10.125 8s-1.057.186-1.272.47L.109 20.008a.5.5 0 0 0-.109.3.5.5 0 0 0 .109.3l4.372 5.768 4.372 5.77c.215.284.718.47 1.272.47s1.056-.186 1.272-.47Z"/></g><path fill="#fff" d="M61.445 8.05c2.1 0 3.944.362 5.53 1.085 1.587.723 2.94 1.797 4.06 3.22L68.34 15.47c-.956-1.213-2.006-2.1-3.15-2.66-1.12-.583-2.426-.875-3.92-.875-.98 0-1.796.128-2.45.385-.63.257-1.096.595-1.4 1.015-.28.42-.42.887-.42 1.4 0 .63.245 1.167.735 1.61.49.42 1.33.77 2.52 1.05l4.305.98c2.287.513 3.92 1.283 4.9 2.31 1.004 1.003 1.505 2.31 1.505 3.92 0 1.517-.396 2.823-1.19 3.92-.793 1.073-1.901 1.902-3.325 2.485-1.423.56-3.056.84-4.9.84-1.61 0-3.091-.187-4.445-.56-1.33-.397-2.52-.933-3.57-1.61-1.05-.677-1.925-1.458-2.625-2.345l2.73-3.255a8.987 8.987 0 0 0 1.995 1.995c.794.583 1.692 1.05 2.695 1.4 1.027.327 2.1.49 3.22.49.957 0 1.762-.105 2.415-.315.677-.233 1.179-.548 1.505-.945.35-.42.525-.922.525-1.505 0-.607-.21-1.12-.63-1.54-.396-.443-1.143-.782-2.24-1.015l-4.69-1.05c-1.353-.327-2.52-.747-3.5-1.26-.956-.537-1.691-1.213-2.205-2.03-.49-.84-.735-1.832-.735-2.975 0-1.377.374-2.613 1.12-3.71.747-1.097 1.82-1.96 3.22-2.59 1.424-.653 3.127-.98 5.11-.98Zm22.32 12.285c0-1.003-.292-1.785-.875-2.345-.56-.56-1.307-.84-2.24-.84-.864 0-1.622.222-2.275.665-.654.443-1.132 1.178-1.435 2.205l-4.095-1.26c.396-1.54 1.26-2.777 2.59-3.71 1.353-.933 3.161-1.4 5.425-1.4 1.54 0 2.881.245 4.025.735 1.143.467 2.03 1.178 2.66 2.135.653.957.98 2.158.98 3.605v7.105c0 .887.42 1.33 1.26 1.33.396 0 .77-.058 1.12-.175l-.28 2.975c-.607.303-1.365.455-2.275.455-.817 0-1.552-.14-2.205-.42a3.422 3.422 0 0 1-1.54-1.26c-.374-.583-.56-1.307-.56-2.17v-.14l.84-.14a4.027 4.027 0 0 1-1.155 2.275c-.63.607-1.4 1.073-2.31 1.4a7.935 7.935 0 0 1-2.765.49c-1.19 0-2.217-.175-3.08-.525-.864-.373-1.529-.91-1.995-1.61-.467-.7-.7-1.563-.7-2.59 0-1.307.42-2.368 1.26-3.185.84-.84 2.041-1.412 3.605-1.715l6.58-1.33-.035 2.975-4.2.84c-.794.163-1.4.385-1.82.665-.397.257-.595.688-.595 1.295 0 .583.21 1.027.63 1.33.443.303.968.455 1.575.455.49 0 .968-.058 1.435-.175a3.853 3.853 0 0 0 1.26-.56c.373-.257.665-.607.875-1.05.21-.443.315-.98.315-1.61v-4.725Zm19.457 0c0-1.003-.291-1.785-.875-2.345-.56-.56-1.306-.84-2.24-.84-.863 0-1.621.222-2.275.665-.653.443-1.131 1.178-1.435 2.205l-4.095-1.26c.397-1.54 1.26-2.777 2.59-3.71 1.354-.933 3.162-1.4 5.425-1.4 1.54 0 2.882.245 4.025.735 1.144.467 2.03 1.178 2.66 2.135.654.957.98 2.158.98 3.605v7.105c0 .887.42 1.33 1.26 1.33.397 0 .77-.058 1.12-.175l-.28 2.975c-.606.303-1.365.455-2.275.455-.816 0-1.551-.14-2.205-.42a3.428 3.428 0 0 1-1.54-1.26c-.373-.583-.56-1.307-.56-2.17v-.14l.84-.14a4.027 4.027 0 0 1-1.155 2.275c-.63.607-1.4 1.073-2.31 1.4a7.93 7.93 0 0 1-2.765.49c-1.19 0-2.216-.175-3.08-.525-.863-.373-1.528-.91-1.995-1.61-.466-.7-.7-1.563-.7-2.59 0-1.307.42-2.368 1.26-3.185.84-.84 2.042-1.412 3.605-1.715l6.58-1.33-.035 2.975-4.2.84c-.793.163-1.4.385-1.82.665-.396.257-.595.688-.595 1.295 0 .583.21 1.027.63 1.33.444.303.969.455 1.575.455.49 0 .969-.058 1.435-.175a3.845 3.845 0 0 0 1.26-.56c.374-.257.665-.607.875-1.05.21-.443.315-.98.315-1.61v-4.725Zm14.584-11.69v17.15c0 .84.21 1.458.63 1.855.444.373 1.039.56 1.785.56.584 0 1.097-.082 1.54-.245a4.43 4.43 0 0 0 1.19-.735l.77 3.185c-.56.443-1.26.793-2.1 1.05a9.049 9.049 0 0 1-2.66.385c-1.166 0-2.205-.175-3.115-.525a4.407 4.407 0 0 1-2.1-1.68c-.49-.77-.735-1.797-.735-3.08V9.975l4.795-1.33Zm5.6 5.355v3.57h-13.615V14h13.615Zm10.175-.35c1.773 0 3.325.362 4.655 1.085a7.648 7.648 0 0 1 3.15 3.115c.77 1.353 1.155 2.987 1.155 4.9 0 1.89-.385 3.523-1.155 4.9a7.648 7.648 0 0 1-3.15 3.115c-1.33.723-2.882 1.085-4.655 1.085-1.75 0-3.302-.362-4.655-1.085a7.865 7.865 0 0 1-3.185-3.115c-.747-1.377-1.12-3.01-1.12-4.9 0-1.913.373-3.547 1.12-4.9a7.865 7.865 0 0 1 3.185-3.115c1.353-.723 2.905-1.085 4.655-1.085Zm0 3.57c-.887 0-1.645.21-2.275.63-.607.397-1.074 1.003-1.4 1.82-.327.817-.49 1.843-.49 3.08s.163 2.263.49 3.08c.326.817.793 1.435 1.4 1.855.63.397 1.388.595 2.275.595.863 0 1.598-.198 2.205-.595.63-.42 1.108-1.038 1.435-1.855.326-.817.49-1.843.49-3.08s-.164-2.263-.49-3.08c-.327-.817-.805-1.423-1.435-1.82-.607-.42-1.342-.63-2.205-.63Zm18.922 14.63c-1.774 0-3.395-.315-4.865-.945-1.447-.63-2.625-1.517-3.535-2.66l2.765-2.8c.56.84 1.306 1.528 2.24 2.065.933.537 2.041.805 3.325.805.91 0 1.633-.128 2.17-.385.56-.28.84-.712.84-1.295 0-.373-.129-.688-.385-.945-.257-.28-.77-.502-1.54-.665l-3.08-.63c-2.03-.42-3.477-1.05-4.34-1.89-.84-.863-1.26-1.972-1.26-3.325 0-.957.28-1.855.84-2.695.583-.84 1.446-1.517 2.59-2.03 1.143-.537 2.566-.805 4.27-.805 1.75 0 3.266.28 4.55.84 1.306.537 2.333 1.342 3.08 2.415l-2.87 2.8a5.012 5.012 0 0 0-2.03-1.855 5.352 5.352 0 0 0-2.59-.665c-.654 0-1.214.07-1.68.21-.467.14-.817.338-1.05.595-.234.233-.35.537-.35.91s.163.7.49.98c.326.257.921.478 1.785.665l3.57.735c1.726.35 2.963.945 3.71 1.785.746.817 1.12 1.808 1.12 2.975 0 1.12-.304 2.123-.91 3.01-.584.863-1.459 1.552-2.625 2.065-1.144.49-2.555.735-4.235.735Zm20.518-11.515c0-1.003-.291-1.785-.875-2.345-.56-.56-1.306-.84-2.24-.84-.863 0-1.621.222-2.275.665-.653.443-1.131 1.178-1.435 2.205l-4.095-1.26c.397-1.54 1.26-2.777 2.59-3.71 1.354-.933 3.162-1.4 5.425-1.4 1.54 0 2.882.245 4.025.735 1.144.467 2.03 1.178 2.66 2.135.654.957.98 2.158.98 3.605v7.105c0 .887.42 1.33 1.26 1.33.397 0 .77-.058 1.12-.175l-.28 2.975c-.606.303-1.365.455-2.275.455-.816 0-1.551-.14-2.205-.42a3.428 3.428 0 0 1-1.54-1.26c-.373-.583-.56-1.307-.56-2.17v-.14l.84-.14a4.027 4.027 0 0 1-1.155 2.275c-.63.607-1.4 1.073-2.31 1.4a7.93 7.93 0 0 1-2.765.49c-1.19 0-2.216-.175-3.08-.525-.863-.373-1.528-.91-1.995-1.61-.466-.7-.7-1.563-.7-2.59 0-1.307.42-2.368 1.26-3.185.84-.84 2.042-1.412 3.605-1.715l6.58-1.33-.035 2.975-4.2.84c-.793.163-1.4.385-1.82.665-.396.257-.595.688-.595 1.295 0 .583.21 1.027.63 1.33.444.303.969.455 1.575.455.49 0 .969-.058 1.435-.175a3.845 3.845 0 0 0 1.26-.56c.374-.257.665-.607.875-1.05.21-.443.315-.98.315-1.61v-4.725Z"/><defs><clipPath id="a"><path fill="#fff" d="M40 0v40H0V0z"/></clipPath></defs></svg>